<svg xmlns="http://www.w3.org/2000/svg" width="64" height="60" viewBox="0 0 64 60"><g><g><path fill="#fff" d="M64 16v38c0 3.31-2.691 6-6 6H6c-3.309 0-6-2.69-6-6V6C0 2.69 2.691 0 6 0h42c1.06 0 2.078.422 2.828 1.171l12 12A4.001 4.001 0 0 1 64 16zm-4 2h-8.002a6 6 0 0 1-6-6H46V4H6a2 2 0 0 0-2 2v48c0 1.106.895 2 2 2h52c1.105 0 2-.894 2-2zm0-2L48 4v8h-.002c0 2.205 1.795 4 4 4zm-30-3a1 1 0 0 1 1-1h10a1 1 0 1 1 0 2H31a1 1 0 0 1-1-1zm0 6a1 1 0 0 1 1-1h10a1 1 0 1 1 0 2H31a1 1 0 0 1-1-1zm1 5h24a1 1 0 1 1 0 2H31a1 1 0 1 1 0-2zm25 13a1 1 0 0 1-1 1H9a1 1 0 0 1 0-2h46c.553 0 1 .446 1 1zm0 6a1 1 0 0 1-1 1.001H9a1 1 0 0 1 0-2h46c.553 0 1 .445 1 1zm0 6a1 1 0 0 1-1 1H9a1 1 0 0 1 0-2h46c.553 0 1 .446 1 1zm0-18a1 1 0 0 1-1 1H9a1 1 0 1 1 0-2h46a1 1 0 0 1 1 1zM8 24V12a2 2 0 0 1 2-2h14a2 2 0 0 1 2 2v12a2 2 0 0 1-2 2H10a2 2 0 0 1-2-2zm4-2h10v-8H12z"/></g></g></svg>