<svg xmlns="http://www.w3.org/2000/svg" width="64" height="64" viewBox="0 0 64 64"><g><g><path fill="#f49244" d="M63.972 2.328l-10 60a2.001 2.001 0 0 1-2.715 1.528L31.87 56.102l-4.155 6.926A2.005 2.005 0 0 1 26 64h-.022a2 2 0 0 1-1.715-1.008l-7.357-12.875-15.649-6.262a1.993 1.993 0 0 1-1.246-1.648 1.997 1.997 0 0 1 .88-1.871l60-40A1.977 1.977 0 0 1 61.998 0a2 2 0 0 1 1.973 2.328zm-45.58 44.074c.195.079.354.22.531.325l33.7-36.075-46.35 30.903zm7.56 11.485L58.25 7.563l-37.885 40.55c.004.008.01.012.014.02zM58.41 11.37L32.105 52.15c.418.023.84.078 1.248.238l17.082 6.832z"/></g></g></svg>